PathFileType	4	(X/Y/Z)	./resultDataOpenSim/trcMotMarkerGrf/sub10/qtm-12-01.trc
DataRate	CameraRate	NumFrames	NumMarkers	Units	OrigDataRate	OrigDataStartFrame	OrigNumFrames
250.000000	250.000000	13	24	m	250.000000	349	465
Frame#	Time	L.Toe.Tip			R.Toe.Tip			L.Ankle.Lat			R.Ankle.Lat			L.Ankle.Med			R.Ankle.Med			L.Heel			R.Heel			L.Knee.Lat			R.Knee.Lat			L.Knee.Med			R.Knee.Med			L.Thigh.Upper			R.Thigh.Upper			L.ASIS			R.ASIS			V.Sacral			L.Acromium			R.Acromium			C7			L.Elbow			R.Elbow			L.Wrist.Lat			R.Wrist.Lat
		X1	Y1	Z1	X2	Y2	Z2	X3	Y3	Z3	X4	Y4	Z4	X5	Y5	Z5	X6	Y6	Z6	X7	Y7	Z7	X8	Y8	Z8	X9	Y9	Z9	X10	Y10	Z10	X11	Y11	Z11	X12	Y12	Z12	X13	Y13	Z13	X14	Y14	Z14	X15	Y15	Z15	X16	Y16	Z16	X17	Y17	Z17	X18	Y18	Z18	X19	Y19	Z19	X20	Y20	Z20	X21	Y21	Z21	X22	Y22	Z22	X23	Y23	Z23	X24	Y24	Z24

349	1.392	0.43634265	0.087753659	-0.18514	0.81193356	0.038264189	0.055980778	0.39017511	0.21507327	-0.20866374	0.66864808	0.055048002	0.096291066	0.41115197	0.21492362	-0.12552037	0.68908329	0.079233788	0.011725097	0.32539586	0.24395607	-0.16509309	0.61835278	0.03115319	0.052625506	0.69115373	0.43764819	-0.20212585	0.73780896	0.45113431	0.10985354	0.70466847	0.40207792	-0.084101742	0.74264407	0.45466566	-0.017277099	0.64271524	0.81528232	-0.22623612	0.66706555	0.86191001	0.15343444	0.70571606	0.93153238	-0.1725584	0.73187815	0.95011856	0.072195984	0.52249865	0.95980895	-0.029695287	0.69302006	1.4271326	-0.16709406	0.65257611	1.4026904	0.14676937	0.59335759	1.4443706	-0.020089645	0.5687525	1.1073039	-0.24685806	0.50979552	1.0793985	0.17325854	0.74441989	0.9159408	-0.29846475	0.61061147	0.88023953	0.28063064
350	1.396	0.45359217	0.086989465	-0.1843602	0.81193384	0.038251991	0.05605569	0.40454488	0.21314638	-0.20827265	0.66875828	0.055090632	0.096245557	0.42521907	0.2134997	-0.12508683	0.68918312	0.079325745	0.011740009	0.33889218	0.24079849	-0.16519528	0.6183638	0.031246549	0.052519642	0.70257845	0.43980497	-0.20106134	0.73853683	0.45100802	0.11009279	0.71553346	0.40453253	-0.082841554	0.74444248	0.45454531	-0.016898974	0.64904523	0.81673806	-0.22643683	0.67111468	0.86248284	0.15358475	0.71196086	0.93318438	-0.17185617	0.73679282	0.95073993	0.072724602	0.52792947	0.96108224	-0.030075749	0.69870503	1.4282399	-0.16695315	0.65838702	1.4039181	0.14694766	0.59923217	1.4455456	-0.019826295	0.57234663	1.1091031	-0.24589745	0.51655524	1.0797948	0.17507706	0.74507566	0.91535668	-0.29873991	0.62328961	0.88280313	0.28136154
351	1.4	0.47114117	0.086153762	-0.18362132	0.81193573	0.038231604	0.056132152	0.41902355	0.21101841	-0.20788162	0.66898786	0.055133175	0.096168391	0.43961466	0.21184398	-0.12471309	0.68928855	0.079415531	0.011745977	0.35252867	0.23738849	-0.16524289	0.61835976	0.031351602	0.052444605	0.71391875	0.44194235	-0.20001121	0.73922162	0.45086417	0.11031607	0.72627768	0.40699594	-0.081571167	0.74612689	0.45441257	-0.016486584	0.65587606	0.81819505	-0.22630379	0.67514143	0.86303863	0.15371132	0.71818597	0.93477128	-0.17114635	0.7417042	0.95134389	0.073275401	0.5332077	0.96234624	-0.030545415	0.7043755	1.4292963	-0.16680861	0.66418749	1.4050961	0.14712142	0.60509495	1.4466699	-0.019562811	0.57585994	1.1108688	-0.24488789	0.52323504	1.080171	0.17695657	0.74570284	0.91482723	-0.2990277	0.63594087	0.8854936	0.28204518
352	1.404	0.48881456	0.085239086	-0.18286931	0.81193927	0.038207748	0.056206263	0.43358592	0.20869491	-0.20750412	0.66925066	0.055174318	0.096076207	0.45431029	0.20998487	-0.12437521	0.68940028	0.07950344	0.011740057	0.36630739	0.2337347	-0.16523924	0.61834435	0.031468089	0.052385073	0.72520678	0.44404061	-0.19899583	0.73999191	0.45071868	0.11058833	0.7371494	0.40948427	-0.08040886	0.7475653	0.4542829	-0.016082424	0.66309759	0.81961837	-0.22592418	0.67916829	0.86358114	0.15382707	0.72440856	0.93629397	-0.17042064	0.74660561	0.95193358	0.073846162	0.53831202	0.96360718	-0.031104822	0.71003726	1.430289	-0.16665927	0.66997877	1.4062203	0.14728609	0.61094327	1.4477451	-0.019305425	0.57933131	1.11259	-0.24386993	0.52988121	1.0805274	0.17886738	0.74629301	0.91434029	-0.29933436	0.64857568	0.88830325	0.28269259
353	1.408	0.50644251	0.084233985	-0.18204778	0.8119488	0.038188495	0.05627262	0.44824459	0.20619557	-0.20714396	0.66943109	0.055228503	0.095991495	0.46906871	0.20796307	-0.12398906	0.68951898	0.079590921	0.011716832	0.38023808	0.22983288	-0.16518369	0.61832823	0.031590906	0.052318706	0.73646436	0.44609253	-0.19802975	0.74081314	0.45058828	0.11090555	0.74799464	0.41201282	-0.079369981	0.74881552	0.45416677	-0.015718293	0.67023923	0.8210136	-0.22564174	0.68320943	0.86411108	0.15393593	0.7306514	0.9377511	-0.16966315	0.75148632	0.95251007	0.074425081	0.54341818	0.96482273	-0.031746187	0.71569538	1.4312131	-0.16650398	0.67575711	1.4072916	0.14743869	0.6167748	1.4487668	-0.01906115	0.58283164	1.1142558	-0.24290631	0.53659295	1.0808476	0.1807769	0.74686483	0.91387898	-0.29964823	0.66115551	0.89120885	0.28329736
354	1.412	0.52400824	0.083144824	-0.18116189	0.81196621	0.038176746	0.056328768	0.46302971	0.20353694	-0.20678559	0.66949713	0.055305957	0.095920077	0.48377164	0.20578349	-0.12351648	0.6896507	0.079676709	0.011668793	0.39434363	0.22567668	-0.16506887	0.6183281	0.031713935	0.05221975	0.747679	0.44809341	-0.19711084	0.74162326	0.45048453	0.11124559	0.75866599	0.4145418	-0.078392519	0.75011638	0.45405044	-0.015329424	0.6769473	0.82240591	-0.22569479	0.68726991	0.86462523	0.15403348	0.73693026	0.93912901	-0.16886238	0.7563426	0.95307474	0.075007489	0.54879811	0.96592361	-0.03244997	0.72135479	1.432071	-0.16634711	0.6815209	1.4083126	0.14758059	0.62259063	1.4497315	-0.018833242	0.5864299	1.1158612	-0.24204684	0.54343451	1.0811001	0.18268557	0.74745998	0.91343261	-0.29993798	0.67364832	0.89419225	0.28386061
355	1.416	0.54160389	0.081977354	-0.18026218	0.81198876	0.03816984	0.056375357	0.47794179	0.20071086	-0.2063983	0.66949601	0.055399484	0.095852305	0.4986302	0.20341697	-0.12302059	0.68979778	0.079755806	0.011593704	0.40865653	0.22126696	-0.16490744	0.61831972	0.031827962	0.052092703	0.75881076	0.45003532	-0.19622237	0.74241838	0.45041377	0.11158276	0.76923637	0.41702412	-0.077444041	0.75174701	0.45392464	-0.014837388	0.68329371	0.82379153	-0.22600394	0.69134868	0.86511736	0.15411164	0.74324101	0.94040881	-0.16802097	0.76118024	0.95362869	0.075601436	0.55451766	0.96689233	-0.033192894	0.72701715	1.4328653	-0.16619665	0.68726997	1.4092808	0.147717	0.62839294	1.4506384	-0.018618672	0.59013967	1.1174058	-0.24128892	0.55033552	1.0812576	0.1846597	0.74810707	0.91300395	-0.30018607	0.68605766	0.89725011	0.28439707
356	1.42	0.55933237	0.080729077	-0.17940899	0.81201333	0.038164956	0.05641312	0.49295831	0.19770121	-0.20596154	0.66946758	0.055500398	0.095782293	0.51397668	0.20083945	-0.12259485	0.68993983	0.079823512	0.011504528	0.42317652	0.2166228	-0.16471445	0.6182233	0.031925502	0.051989408	0.76982358	0.45191839	-0.19535266	0.74324273	0.45037791	0.111897	0.77978208	0.41944908	-0.076542827	0.75376627	0.45382291	-0.014275534	0.68962869	0.82513648	-0.2263269	0.69544518	0.86558222	0.15416237	0.74955453	0.94158751	-0.16715907	0.76600818	0.95417063	0.076217877	0.56040489	0.96776445	-0.03395668	0.73267712	1.4335954	-0.16605817	0.69299846	1.410186	0.14785051	0.63417952	1.4514836	-0.018412919	0.59392995	1.1188878	-0.24059597	0.55712956	1.0813156	0.18679813	0.74879982	0.91260223	-0.30040476	0.69841242	0.90038513	0.28492074
357	1.424	0.57722917	0.079404414	-0.17863056	0.81203893	0.038160522	0.056443232	0.50806339	0.19450657	-0.20547978	0.66940065	0.055611855	0.09571599	0.52984378	0.19805797	-0.12224809	0.69004247	0.079881371	0.011425368	0.43785017	0.21177828	-0.16445328	0.6180249	0.032019188	0.05193396	0.78070052	0.45375305	-0.19450666	0.74413133	0.45036969	0.1121956	0.79025888	0.421814	-0.075720944	0.75583972	0.45379781	-0.013763978	0.69624878	0.82641207	-0.22652008	0.69956217	0.86601893	0.15418127	0.75583748	0.9426823	-0.16630565	0.77083036	0.9546984	0.076861079	0.56629834	0.96854791	-0.034739441	0.7383296	1.4342599	-0.16593068	0.69870471	1.4110214	0.14798095	0.63994718	1.4522648	-0.018214982	0.59779143	1.1203035	-0.23995394	0.5637508	1.0813087	0.18911975	0.74951215	0.91223097	-0.30061714	0.71072764	0.90358653	0.2854274
358	1.428	0.59527215	0.078023586	-0.17791275	0.81206547	0.038153753	0.05646858	0.52325373	0.19113771	-0.2049686	0.66926664	0.055741088	0.095660796	0.54586714	0.19511026	-0.12189035	0.69010489	0.079936058	0.011365773	0.45263838	0.20675292	-0.164077	0.61784556	0.032134619	0.051867704	0.79144156	0.45554591	-0.19369561	0.74508146	0.45037115	0.11249435	0.80058876	0.42410578	-0.074999093	0.75757106	0.45383924	-0.013366157	0.70319934	0.82761579	-0.22658578	0.70370547	0.86643019	0.15417175	0.76209355	0.94371187	-0.16547881	0.77564496	0.95521173	0.077528368	0.57213998	0.96922923	-0.035564265	0.74397731	1.4348557	-0.16580745	0.70439873	1.411795	0.14811031	0.64569962	1.4529928	-0.018024482	0.60175082	1.1216504	-0.23938266	0.57034344	1.0812971	0.19151035	0.75022822	0.91188564	-0.30083766	0.72298587	0.90682738	0.28589905
359	1.432	0.61344605	0.076612903	-0.17722925	0.81209285	0.038139275	0.056491375	0.53854073	0.18761231	-0.20443604	0.66908596	0.055883142	0.095610179	0.56168793	0.19205092	-0.12144042	0.69018574	0.079988947	0.011301273	0.46757049	0.20154042	-0.16360078	0.61776454	0.032268505	0.051738393	0.80206505	0.45729518	-0.19292563	0.74607818	0.45037025	0.11278827	0.81077142	0.42632357	-0.074353136	0.75895356	0.45385638	-0.013035902	0.71026142	0.82876529	-0.22659536	0.70788064	0.86681853	0.15414257	0.76837504	0.94468578	-0.16467608	0.7804507	0.9557096	0.07821418	0.57791659	0.96983805	-0.036455692	0.74962424	1.4353783	-0.16568441	0.71009088	1.4125198	0.14823985	0.65144677	1.4536793	-0.017839993	0.60583287	1.1229255	-0.23890287	0.57712475	1.0813132	0.19383063	0.75095337	0.91155934	-0.30106821	0.73516388	0.91008455	0.28632451
360	1.436	0.63177184	0.075191756	-0.17656679	0.81212206	0.038113155	0.056510924	0.55395572	0.18395501	-0.20388051	0.66893194	0.056022215	0.095547074	0.57720964	0.18894155	-0.12087719	0.69034609	0.080031424	0.011197748	0.48270966	0.19613505	-0.1630838	0.61770817	0.032384598	0.051575713	0.81260356	0.45899982	-0.19219728	0.74711813	0.45037536	0.11306707	0.82088667	0.42848902	-0.073717779	0.76025416	0.45377899	-0.012717682	0.71719671	0.82987926	-0.22662045	0.71209049	0.86718592	0.15410094	0.77474183	0.94560669	-0.16388263	0.78524817	0.95618656	0.078911583	0.5836465	0.97042528	-0.037407445	0.75526905	1.4358259	-0.1655641	0.71578202	1.4131979	0.14836799	0.65719695	1.4543207	-0.017664432	0.61003738	1.124125	-0.23851361	0.58417855	1.0813304	0.19605276	0.75170243	0.91124676	-0.30130757	0.74725491	0.91334895	0.28670429
361	1.44	0.65028542	0.073765259	-0.17592858	0.8121559	0.038080869	0.056525334	0.56953557	0.18019031	-0.2033004	0.66885637	0.056150405	0.095464473	0.59243639	0.18582472	-0.12018419	0.69056344	0.080056164	0.011057774	0.49808617	0.19055499	-0.16257034	0.61762962	0.032462468	0.051411365	0.82306053	0.460664	-0.19150158	0.74819566	0.45040193	0.11333977	0.83099079	0.43062082	-0.073053972	0.7616505	0.45363001	-0.012418882	0.72400303	0.83096164	-0.22668337	0.7163371	0.86753507	0.15404808	0.7812035	0.94647187	-0.1630851	0.79003487	0.95663613	0.079612301	0.58936313	0.97101326	-0.038387193	0.76090944	1.4362005	-0.16545018	0.72146492	1.4138211	0.14849457	0.6629497	1.4549068	-0.01750583	0.61434184	1.1252499	-0.238195	0.59139435	1.0812939	0.198265	0.75248883	0.91094349	-0.30156573	0.75925976	0.9166178	0.28704346
